<?xml version="1.0" encoding="utf-8"?>
<!-- Generator: Adobe Illustrator 19.1.0, SVG Export Plug-In . SVG Version: 6.00 Build 0)  -->
<svg version="1.1" id="Layer_1" xmlns="http://www.w3.org/2000/svg" xmlns:xlink="http://www.w3.org/1999/xlink" x="0px" y="0px"
	 viewBox="0 0 43.2 53.6" style="enable-background:new 0 0 43.2 53.6;" xml:space="preserve">
<style type="text/css">
	.st0{fill:none;}
	.st1{fill:none;stroke:#FFFFFF;stroke-width:2.5;stroke-miterlimit:10;}
</style>
<path d="M16.4,20c0.5,0.5,0.5,1.3,0,1.8l-4.8,5l-2.8-3.3c-0.5-0.5-0.4-1.3,0.1-1.8c0.5-0.4,1.3-0.4,1.8,0.1l1.1,1.2l2.9-3
	C15.1,19.5,15.9,19.5,16.4,20z M14.7,29.6l-2.9,3l-1.1-1.2c-0.4-0.5-1.2-0.6-1.8-0.1c-0.5,0.4-0.6,1.2-0.1,1.8l2.8,3.3l4.8-5
	c0.5-0.5,0.5-1.3,0-1.8C15.9,29.1,15.1,29.1,14.7,29.6z M14.7,39.2l-2.9,3L10.7,41c-0.4-0.5-1.2-0.6-1.8-0.1
	c-0.5,0.4-0.6,1.2-0.1,1.8l2.8,3.3l4.8-5c0.5-0.5,0.5-1.3,0-1.8C15.9,38.7,15.1,38.7,14.7,39.2z M19.5,22.9c0,0.8,0.7,1.5,1.5,1.5
	h13c0.8,0,1.5-0.7,1.5-1.5s-0.7-1.5-1.5-1.5H21C20.2,21.4,19.5,22,19.5,22.9z M34,31.4H21c-0.8,0-1.5,0.7-1.5,1.5s0.7,1.5,1.5,1.5
	h13c0.8,0,1.5-0.7,1.5-1.5S34.8,31.4,34,31.4z M34,40.4H21c-0.8,0-1.5,0.7-1.5,1.5s0.7,1.5,1.5,1.5h13c0.8,0,1.5-0.7,1.5-1.5
	S34.8,40.4,34,40.4z M42.6,12.3V47c0,3.4-2.8,6.2-6.2,6.2H6.8c-3.4,0-6.2-2.8-6.2-6.2V6.8c0-3.4,2.8-6.2,6.2-6.2h26.1L42.6,12.3z
	 M33.1,11.7l5.8,0l-5.8-7V11.7z M40.1,14.2l-7.6-0.1c-1,0-1.9-0.9-1.9-1.9V3H6.8C4.7,3,3.1,4.7,3.1,6.8V47c0,2.1,1.7,3.8,3.8,3.8
	h29.5c2.1,0,3.8-1.7,3.8-3.8V14.2z"/>
</svg>
