<?xml version="1.0" encoding="utf-8"?>
<!-- Generator: Adobe Illustrator 19.1.0, SVG Export Plug-In . SVG Version: 6.00 Build 0)  -->
<svg version="1.1" id="Layer_1" xmlns="http://www.w3.org/2000/svg" xmlns:xlink="http://www.w3.org/1999/xlink" x="0px" y="0px"
	 viewBox="0 0 49 62.4" style="enable-background:new 0 0 49 62.4;" xml:space="preserve">
<style type="text/css">
	.st0{fill:none;}
	.st1{fill:none;stroke:#FFFFFF;stroke-width:2.5;stroke-miterlimit:10;}
</style>
<path d="M41.8,12.4c-5.5-5.1-12.8-6-16.2-6.1c0-0.1,0-0.2,0-0.2V2c0-0.8-0.7-1.5-1.5-1.5S22.6,1.2,22.6,2v4c0,0.1,0,0.2,0,0.3
	C16.1,6.5,10.8,8.6,7,12.5c-6.5,6.9-6.2,16.7-6.1,17.2L1,31.3l1.5-0.5c0.3-0.1,1.5-0.5,3.1-1.1l0.3,13.6L7.3,43
	c0.1,0,0.5-0.1,1.2-0.4c0.6,1.9,2.1,6.7,4.3,9.9l0.7,1l1-0.7c0,0,0.3-0.2,0.6-0.5c1.3,2.4,4,6.5,8.5,8.9l0.6,0.3l0.6-0.3
	c0.2-0.1,5.3-2.7,8.5-8.8c0.3,0.2,0.5,0.4,0.5,0.4l1,0.7l0.7-1c2.2-3.2,4.1-8.1,4.7-10c0.9,0.4,1.4,0.5,1.5,0.6l1.5,0.3L43.7,30
	c1.7,0.6,3,1,3.1,1.1l1.6,0.5v-1.7C48.4,22.4,46.2,16.5,41.8,12.4z M8.3,40L8.1,28.8c2.6-1.1,5.5-2.5,7.5-4.1c0.7,1.3,1.7,3,3,4.5
	C14.3,36.1,10.3,38.9,8.3,40z M20.4,31c1.1,0.9,2.4,1.5,3.8,1.5c1.6,0,3.1-0.8,4.3-1.9c0.8,1.3,1.6,2.6,2.4,3.6
	c-2,4.8-5.3,8.3-6.8,9.7c-2.8-2.8-5.7-7.3-6.7-8.8C18.5,33.8,19.4,32.5,20.4,31z M14.2,50c-1.8-3.2-3.1-7.5-3.4-8.6
	c1.4-0.9,3.2-2.3,5.1-4.4c1,1.5,2.7,4.1,4.7,6.5C18.9,46.1,15.8,48.7,14.2,50z M24.3,58.7c-3.8-2.2-6.1-6-7.1-7.9
	c1.6-1.4,3.7-3.3,5.1-5.4c0.4,0.4,0.7,0.7,1.1,1l0.8,0.7l0.8-0.7c0.1,0,0.5-0.4,1.1-1c1.5,2.1,3.6,4.1,5.2,5.5
	C29.1,55.5,25.6,57.9,24.3,58.7z M34.3,50c-1.6-1.3-4.7-3.9-6.4-6.5c1.5-1.7,3.4-4.2,4.8-7.3c2,2.4,3.9,3.9,5.4,4.9
	C37.8,42.5,36.2,46.8,34.3,50z M41,40c-2.1-1.1-6.2-4-10.6-11.5c1.1-1.5,2-3.1,2.6-4.3c2.3,2,5.5,3.6,8.2,4.8L41,40z M33.5,21.3
	l-1.3-1.6l-0.8,1.9c-0.9,2.2-4,8.3-7.2,8.3c-3.1,0-6.3-5.8-7.2-7.8l-0.8-1.9l-1.3,1.7c-1.8,2.3-7.9,4.8-11.5,6.1
	c0.2-2.9,1.1-9.1,5.4-13.6c3.5-3.6,8.5-5.5,15-5.5c0.1,0,9.8-0.6,16.3,5.5c3.5,3.3,5.5,8,5.8,13.9C42.8,27.1,36.3,24.5,33.5,21.3z"
	/>
</svg>
