<?xml version="1.0" encoding="utf-8"?>
<!-- Generator: Adobe Illustrator 19.1.0, SVG Export Plug-In . SVG Version: 6.00 Build 0)  -->
<svg version="1.1" id="Layer_1" xmlns="http://www.w3.org/2000/svg" xmlns:xlink="http://www.w3.org/1999/xlink" x="0px" y="0px"
	 viewBox="0 0 42.1 40.2" style="enable-background:new 0 0 42.1 40.2;" xml:space="preserve">
<style type="text/css">
	.st0{fill:none;}
	.st1{fill:none;stroke:#FFFFFF;stroke-width:2.5;stroke-miterlimit:10;}
</style>
<path d="M41.8,2.2c0-0.7-0.4-1.3-1-1.6c-0.6-0.3-1.3-0.4-1.9,0C34.8,2.6,20.2,8.7,3.5,0.6C2.9,0.3,2.2,0.4,1.6,0.7
	C1,1,0.7,1.6,0.6,2.3C0.4,5.1,0.2,12,3.4,17.8c-5.2,6.1-2.6,13.8-2.3,14.5c0.1,0.4,0.8,2.4,2.6,4.2c1.6,1.7,4.5,3.5,9.2,3.5
	c0.5,0,1,0,1.6-0.1c8.5-0.7,10.8-8.7,10.9-12.8l0-0.7C38.5,24.4,42.5,12.7,41.8,2.2z M25.6,23.9l0.1-3.4c0-0.7-0.5-1.3-1.2-1.3
	c0,0,0,0,0,0c-0.7,0-1.2,0.5-1.2,1.2L23,27.1c0,0.4-0.3,9.7-8.6,10.4c-8.7,0.8-10.8-5.7-10.8-5.9l0-0.1c-0.1-0.3-3-7.8,2.9-13.2
	c3.7-3.3,8-3.6,10.8-3.3c-6.6,4.8-6.7,12.8-6.7,13.2c0,0.7,0.6,1.2,1.2,1.2s1.2-0.6,1.2-1.2c0-0.1,0.1-9,8.2-12.5
	c6.7-3,12.2,1.3,13.9,2.9C33,21.1,30,23.1,25.6,23.9z M36.5,16.5c-2.3-2-8.5-6.3-15.9-3.3c-1.9-0.6-9.1-2.2-15.3,2.8
	C3,11.3,2.9,6,3.1,3.2c16.6,7.8,31.2,2.3,36.3-0.1C39.5,6.1,39.2,11.7,36.5,16.5z"/>
</svg>
